<?xml version="1.0" encoding="UTF-8"?>
<svg width="128pt" height="128pt" version="1.1" viewBox="0 0 128 128" xmlns="http://www.w3.org/2000/svg">
 <path d="m121.69 89.418c-1.5508-3.1602-4.2617-5.9414-7.8203-8.3867-5.3516-3.6758-12.645-6.6289-21.285-8.7148-8.625-2.0742-18.586-3.25-29.195-3.25-2.4844 0-4.9297 0.074219-7.3359 0.20312v-21.48l49.242-14.156c0.79688-0.23047 1.3438-0.93359 1.3789-1.7539 0.039063-0.82031-0.46094-1.5742-1.2305-1.8555l-50.086-19.059c-0.55078-0.20312-1.125-0.14062-1.6016 0.11328-0.87109 0.17969-1.5234 0.94531-1.5234 1.8711v56.574c-11.711 0.94531-22.195 3.3398-30.426 6.7695-5.3906 2.2539-9.8047 4.9531-12.98 8.0742-1.5859 1.5586-2.8555 3.25-3.7383 5.0547-0.88672 1.8047-1.3711 3.7266-1.3711 5.7109 0 1.9688 0.48438 3.9062 1.3711 5.7109 1.5508 3.1602 4.2617 5.9414 7.8203 8.3867 5.3516 3.6758 12.645 6.6289 21.285 8.7148 8.625 2.0742 18.586 3.25 29.195 3.25 16.164 0 30.809-2.7266 41.574-7.2188 5.3906-2.2539 9.8047-4.9531 12.98-8.0742 1.5859-1.5586 2.8555-3.25 3.7383-5.0547 0.88672-1.8047 1.3711-3.7266 1.3711-5.7109 0-1.9688-0.48438-3.9062-1.3711-5.7109zm-65.641-45.605v-28.52l42.691 16.246zm62.211 55.344c-1.1406 2.3398-3.3633 4.7266-6.5547 6.9258-4.7852 3.3008-11.711 6.1562-20.004 8.1406-8.3047 1.9961-17.984 3.1484-28.301 3.1484-15.73 0-29.965-2.6914-40.102-6.9258-5.0703-2.1094-9.1016-4.6211-11.773-7.2695-1.3438-1.3203-2.3398-2.6758-2.9961-4.0195s-0.97656-2.6758-0.98438-4.0312c0-1.3555 0.32031-2.6914 0.98438-4.0312 1.1406-2.3398 3.3633-4.7266 6.5547-6.9258 4.7852-3.3008 11.711-6.1562 20.004-8.1406 5.2344-1.2539 11.012-2.1758 17.148-2.6914v7.3086c-4.3906 0.16406-8.3438 0.91016-11.43 2.0859-1.7656 0.67969-3.2656 1.4844-4.4297 2.5195-0.57422 0.52344-1.0742 1.1133-1.4453 1.7891-0.37109 0.67969-0.58984 1.4609-0.58984 2.2812 0 0.80469 0.21875 1.6016 0.58984 2.2812 0.65625 1.1914 1.6758 2.1016 2.8945 2.8633 1.8438 1.1484 4.2266 2.0117 7 2.625 2.7812 0.60156 5.9492 0.94531 9.3203 0.94531 5.1445 0 9.8047-0.78125 13.34-2.1094 1.7656-0.67969 3.2656-1.4844 4.4297-2.5195 0.57422-0.52344 1.0742-1.1133 1.4453-1.7891 0.37109-0.67969 0.58984-1.4609 0.58984-2.2812 0-0.80469-0.21875-1.6016-0.58984-2.2812-0.65625-1.1914-1.6758-2.1016-2.8945-2.8633-1.8438-1.1484-4.2266-2.0117-7-2.625-2.2383-0.48438-4.7617-0.79688-7.4102-0.89453v-7.5781c2.4062-0.12891 4.8516-0.20312 7.3359-0.20312 15.73 0 29.965 2.6914 40.102 6.9258 5.0703 2.1094 9.1016 4.6211 11.773 7.2695 1.3438 1.3203 2.3398 2.6758 2.9961 4.0195s0.97656 2.6758 0.98438 4.0312c0 1.3555-0.32031 2.6914-0.98438 4.0312zm-66.023-4.9805c-3.9805-0.16406-7.5391-0.85938-10.086-1.8281-1.4688-0.55078-2.6016-1.2148-3.2383-1.8047-0.32031-0.29688-0.52344-0.56641-0.64062-0.76953-0.11328-0.20313-0.12891-0.34375-0.14063-0.47656 0-0.12891 0.023438-0.25391 0.14063-0.47656 0.17969-0.35937 0.69141-0.91016 1.5586-1.4453 1.2969-0.82031 3.3281-1.5859 5.8008-2.125 1.9609-0.42188 4.2109-0.70312 6.6055-0.80469zm3.8164-9.7148c3.9805 0.16406 7.5391 0.85937 10.086 1.8281 1.4688 0.55078 2.6016 1.2148 3.2383 1.8047 0.32031 0.29688 0.52344 0.56641 0.64062 0.76953 0.11328 0.20312 0.12891 0.34375 0.14062 0.47656 0 0.12891-0.023437 0.25391-0.14062 0.47656-0.17969 0.35938-0.69141 0.91016-1.5586 1.4453-1.2969 0.82031-3.3281 1.5859-5.8008 2.125-1.9609 0.42188-4.2109 0.70312-6.6055 0.80469z"/>
</svg>
